<mxfile host="Electron" modified="2023-05-31T20:26:36.048Z" agent="Mozilla/5.0 (Windows NT 10.0; Win64; x64) AppleWebKit/537.36 (KHTML, like Gecko) draw.io/21.2.8 Chrome/112.0.5615.165 Electron/24.2.0 Safari/537.36" etag="YIVRw3Tg49uuuW9yTzEs" version="21.2.8" type="device">
  <diagram name="Page-1" id="PFkMj68SpPz-wRc8ezKi">
    <mxGraphModel dx="712" dy="827" grid="0" gridSize="10" guides="1" tooltips="1" connect="1" arrows="1" fold="1" page="1" pageScale="1" pageWidth="850" pageHeight="1100" math="0" shadow="0">
      <root>
        <mxCell id="0" />
        <mxCell id="1" parent="0" />
        <mxCell id="yzQE8LfdgDyKLCNUL7R--5" style="edgeStyle=orthogonalEdgeStyle;rounded=0;orthogonalLoop=1;jettySize=auto;html=1;exitX=0;exitY=0.5;exitDx=0;exitDy=0;entryX=0.5;entryY=0;entryDx=0;entryDy=0;" edge="1" parent="1" source="yzQE8LfdgDyKLCNUL7R--1" target="yzQE8LfdgDyKLCNUL7R--2">
          <mxGeometry relative="1" as="geometry" />
        </mxCell>
        <mxCell id="yzQE8LfdgDyKLCNUL7R--6" style="edgeStyle=orthogonalEdgeStyle;rounded=0;orthogonalLoop=1;jettySize=auto;html=1;exitX=1;exitY=0.5;exitDx=0;exitDy=0;entryX=0.5;entryY=0;entryDx=0;entryDy=0;" edge="1" parent="1" source="yzQE8LfdgDyKLCNUL7R--1" target="yzQE8LfdgDyKLCNUL7R--3">
          <mxGeometry relative="1" as="geometry" />
        </mxCell>
        <mxCell id="yzQE8LfdgDyKLCNUL7R--1" value="1" style="ellipse;whiteSpace=wrap;html=1;" vertex="1" parent="1">
          <mxGeometry x="257" y="58" width="62" height="52" as="geometry" />
        </mxCell>
        <mxCell id="yzQE8LfdgDyKLCNUL7R--7" style="edgeStyle=orthogonalEdgeStyle;rounded=0;orthogonalLoop=1;jettySize=auto;html=1;exitX=0;exitY=0.5;exitDx=0;exitDy=0;entryX=0;entryY=0.5;entryDx=0;entryDy=0;" edge="1" parent="1" source="yzQE8LfdgDyKLCNUL7R--2" target="yzQE8LfdgDyKLCNUL7R--4">
          <mxGeometry relative="1" as="geometry" />
        </mxCell>
        <mxCell id="yzQE8LfdgDyKLCNUL7R--2" value="2" style="ellipse;whiteSpace=wrap;html=1;" vertex="1" parent="1">
          <mxGeometry x="187" y="110" width="62" height="52" as="geometry" />
        </mxCell>
        <mxCell id="yzQE8LfdgDyKLCNUL7R--10" style="edgeStyle=orthogonalEdgeStyle;rounded=0;orthogonalLoop=1;jettySize=auto;html=1;exitX=0;exitY=0.5;exitDx=0;exitDy=0;" edge="1" parent="1" source="yzQE8LfdgDyKLCNUL7R--3" target="yzQE8LfdgDyKLCNUL7R--8">
          <mxGeometry relative="1" as="geometry" />
        </mxCell>
        <mxCell id="yzQE8LfdgDyKLCNUL7R--12" style="edgeStyle=orthogonalEdgeStyle;rounded=0;orthogonalLoop=1;jettySize=auto;html=1;exitX=0.5;exitY=1;exitDx=0;exitDy=0;" edge="1" parent="1" source="yzQE8LfdgDyKLCNUL7R--3" target="yzQE8LfdgDyKLCNUL7R--9">
          <mxGeometry relative="1" as="geometry" />
        </mxCell>
        <mxCell id="yzQE8LfdgDyKLCNUL7R--3" value="3" style="ellipse;whiteSpace=wrap;html=1;" vertex="1" parent="1">
          <mxGeometry x="327" y="110" width="62" height="52" as="geometry" />
        </mxCell>
        <mxCell id="yzQE8LfdgDyKLCNUL7R--4" value="19" style="ellipse;whiteSpace=wrap;html=1;" vertex="1" parent="1">
          <mxGeometry x="79" y="1023" width="62" height="52" as="geometry" />
        </mxCell>
        <mxCell id="yzQE8LfdgDyKLCNUL7R--11" style="edgeStyle=orthogonalEdgeStyle;rounded=0;orthogonalLoop=1;jettySize=auto;html=1;exitX=0.5;exitY=1;exitDx=0;exitDy=0;entryX=0;entryY=0.5;entryDx=0;entryDy=0;" edge="1" parent="1" source="yzQE8LfdgDyKLCNUL7R--8" target="yzQE8LfdgDyKLCNUL7R--9">
          <mxGeometry relative="1" as="geometry">
            <Array as="points">
              <mxPoint x="305" y="240" />
            </Array>
          </mxGeometry>
        </mxCell>
        <mxCell id="yzQE8LfdgDyKLCNUL7R--8" value="4" style="ellipse;whiteSpace=wrap;html=1;" vertex="1" parent="1">
          <mxGeometry x="274" y="162" width="62" height="52" as="geometry" />
        </mxCell>
        <mxCell id="yzQE8LfdgDyKLCNUL7R--17" style="edgeStyle=orthogonalEdgeStyle;rounded=0;orthogonalLoop=1;jettySize=auto;html=1;exitX=1;exitY=0.5;exitDx=0;exitDy=0;entryX=1;entryY=0.5;entryDx=0;entryDy=0;" edge="1" parent="1" source="yzQE8LfdgDyKLCNUL7R--9" target="yzQE8LfdgDyKLCNUL7R--16">
          <mxGeometry relative="1" as="geometry" />
        </mxCell>
        <mxCell id="yzQE8LfdgDyKLCNUL7R--36" style="edgeStyle=orthogonalEdgeStyle;rounded=0;orthogonalLoop=1;jettySize=auto;html=1;exitX=0;exitY=1;exitDx=0;exitDy=0;entryX=0.5;entryY=0;entryDx=0;entryDy=0;" edge="1" parent="1" source="yzQE8LfdgDyKLCNUL7R--9" target="yzQE8LfdgDyKLCNUL7R--14">
          <mxGeometry relative="1" as="geometry">
            <Array as="points">
              <mxPoint x="218" y="258" />
            </Array>
          </mxGeometry>
        </mxCell>
        <mxCell id="yzQE8LfdgDyKLCNUL7R--9" value="5" style="ellipse;whiteSpace=wrap;html=1;" vertex="1" parent="1">
          <mxGeometry x="327" y="214" width="62" height="52" as="geometry" />
        </mxCell>
        <mxCell id="yzQE8LfdgDyKLCNUL7R--19" style="edgeStyle=orthogonalEdgeStyle;rounded=0;orthogonalLoop=1;jettySize=auto;html=1;exitX=0.5;exitY=1;exitDx=0;exitDy=0;entryX=0.5;entryY=0;entryDx=0;entryDy=0;" edge="1" parent="1" source="yzQE8LfdgDyKLCNUL7R--14" target="yzQE8LfdgDyKLCNUL7R--18">
          <mxGeometry relative="1" as="geometry" />
        </mxCell>
        <mxCell id="yzQE8LfdgDyKLCNUL7R--14" value="6.1" style="ellipse;whiteSpace=wrap;html=1;" vertex="1" parent="1">
          <mxGeometry x="187" y="274" width="62" height="52" as="geometry" />
        </mxCell>
        <mxCell id="yzQE8LfdgDyKLCNUL7R--45" style="edgeStyle=orthogonalEdgeStyle;rounded=0;orthogonalLoop=1;jettySize=auto;html=1;exitX=0;exitY=0.5;exitDx=0;exitDy=0;entryX=0.5;entryY=0;entryDx=0;entryDy=0;" edge="1" parent="1" source="yzQE8LfdgDyKLCNUL7R--16" target="yzQE8LfdgDyKLCNUL7R--43">
          <mxGeometry relative="1" as="geometry" />
        </mxCell>
        <mxCell id="yzQE8LfdgDyKLCNUL7R--48" style="edgeStyle=orthogonalEdgeStyle;rounded=0;orthogonalLoop=1;jettySize=auto;html=1;exitX=0.5;exitY=1;exitDx=0;exitDy=0;" edge="1" parent="1" source="yzQE8LfdgDyKLCNUL7R--16" target="yzQE8LfdgDyKLCNUL7R--47">
          <mxGeometry relative="1" as="geometry" />
        </mxCell>
        <mxCell id="yzQE8LfdgDyKLCNUL7R--16" value="11" style="ellipse;whiteSpace=wrap;html=1;" vertex="1" parent="1">
          <mxGeometry x="471" y="524" width="62" height="52" as="geometry" />
        </mxCell>
        <mxCell id="yzQE8LfdgDyKLCNUL7R--22" style="edgeStyle=orthogonalEdgeStyle;rounded=0;orthogonalLoop=1;jettySize=auto;html=1;exitX=1;exitY=0.5;exitDx=0;exitDy=0;entryX=0.5;entryY=0;entryDx=0;entryDy=0;" edge="1" parent="1" source="yzQE8LfdgDyKLCNUL7R--18" target="yzQE8LfdgDyKLCNUL7R--16">
          <mxGeometry relative="1" as="geometry" />
        </mxCell>
        <mxCell id="yzQE8LfdgDyKLCNUL7R--24" style="edgeStyle=orthogonalEdgeStyle;rounded=0;orthogonalLoop=1;jettySize=auto;html=1;exitX=0.5;exitY=1;exitDx=0;exitDy=0;entryX=0.5;entryY=0;entryDx=0;entryDy=0;" edge="1" parent="1" source="yzQE8LfdgDyKLCNUL7R--18" target="yzQE8LfdgDyKLCNUL7R--23">
          <mxGeometry relative="1" as="geometry" />
        </mxCell>
        <mxCell id="yzQE8LfdgDyKLCNUL7R--18" value="6.2" style="ellipse;whiteSpace=wrap;html=1;" vertex="1" parent="1">
          <mxGeometry x="193" y="351" width="62" height="52" as="geometry" />
        </mxCell>
        <mxCell id="yzQE8LfdgDyKLCNUL7R--26" style="edgeStyle=orthogonalEdgeStyle;rounded=0;orthogonalLoop=1;jettySize=auto;html=1;exitX=0;exitY=0.5;exitDx=0;exitDy=0;entryX=0.5;entryY=0;entryDx=0;entryDy=0;" edge="1" parent="1" source="yzQE8LfdgDyKLCNUL7R--23" target="yzQE8LfdgDyKLCNUL7R--25">
          <mxGeometry relative="1" as="geometry" />
        </mxCell>
        <mxCell id="yzQE8LfdgDyKLCNUL7R--28" style="edgeStyle=orthogonalEdgeStyle;rounded=0;orthogonalLoop=1;jettySize=auto;html=1;exitX=0.5;exitY=1;exitDx=0;exitDy=0;" edge="1" parent="1" source="yzQE8LfdgDyKLCNUL7R--23" target="yzQE8LfdgDyKLCNUL7R--27">
          <mxGeometry relative="1" as="geometry" />
        </mxCell>
        <mxCell id="yzQE8LfdgDyKLCNUL7R--23" value="7" style="ellipse;whiteSpace=wrap;html=1;" vertex="1" parent="1">
          <mxGeometry x="187" y="419" width="62" height="52" as="geometry" />
        </mxCell>
        <mxCell id="yzQE8LfdgDyKLCNUL7R--30" style="edgeStyle=orthogonalEdgeStyle;rounded=0;orthogonalLoop=1;jettySize=auto;html=1;exitX=0.5;exitY=1;exitDx=0;exitDy=0;entryX=0;entryY=0.5;entryDx=0;entryDy=0;" edge="1" parent="1" source="yzQE8LfdgDyKLCNUL7R--25" target="yzQE8LfdgDyKLCNUL7R--27">
          <mxGeometry relative="1" as="geometry">
            <Array as="points">
              <mxPoint x="168" y="553" />
            </Array>
          </mxGeometry>
        </mxCell>
        <mxCell id="yzQE8LfdgDyKLCNUL7R--25" value="8" style="ellipse;whiteSpace=wrap;html=1;" vertex="1" parent="1">
          <mxGeometry x="137" y="471" width="62" height="52" as="geometry" />
        </mxCell>
        <mxCell id="yzQE8LfdgDyKLCNUL7R--35" style="edgeStyle=orthogonalEdgeStyle;rounded=0;orthogonalLoop=1;jettySize=auto;html=1;exitX=0;exitY=1;exitDx=0;exitDy=0;entryX=0.5;entryY=0;entryDx=0;entryDy=0;" edge="1" parent="1" source="yzQE8LfdgDyKLCNUL7R--27" target="yzQE8LfdgDyKLCNUL7R--32">
          <mxGeometry relative="1" as="geometry" />
        </mxCell>
        <mxCell id="yzQE8LfdgDyKLCNUL7R--40" style="edgeStyle=orthogonalEdgeStyle;rounded=0;orthogonalLoop=1;jettySize=auto;html=1;exitX=0.5;exitY=1;exitDx=0;exitDy=0;entryX=0.5;entryY=0;entryDx=0;entryDy=0;" edge="1" parent="1" source="yzQE8LfdgDyKLCNUL7R--27" target="yzQE8LfdgDyKLCNUL7R--37">
          <mxGeometry relative="1" as="geometry" />
        </mxCell>
        <mxCell id="yzQE8LfdgDyKLCNUL7R--27" value="9" style="ellipse;whiteSpace=wrap;html=1;" vertex="1" parent="1">
          <mxGeometry x="187" y="527" width="62" height="52" as="geometry" />
        </mxCell>
        <mxCell id="yzQE8LfdgDyKLCNUL7R--39" style="edgeStyle=orthogonalEdgeStyle;rounded=0;orthogonalLoop=1;jettySize=auto;html=1;exitX=0.5;exitY=1;exitDx=0;exitDy=0;entryX=0;entryY=0.5;entryDx=0;entryDy=0;" edge="1" parent="1" source="yzQE8LfdgDyKLCNUL7R--32" target="yzQE8LfdgDyKLCNUL7R--37">
          <mxGeometry relative="1" as="geometry">
            <Array as="points">
              <mxPoint x="168" y="665" />
              <mxPoint x="195" y="665" />
            </Array>
          </mxGeometry>
        </mxCell>
        <mxCell id="yzQE8LfdgDyKLCNUL7R--32" value="10" style="ellipse;whiteSpace=wrap;html=1;" vertex="1" parent="1">
          <mxGeometry x="137" y="585" width="62" height="52" as="geometry" />
        </mxCell>
        <mxCell id="yzQE8LfdgDyKLCNUL7R--41" style="edgeStyle=orthogonalEdgeStyle;rounded=0;orthogonalLoop=1;jettySize=auto;html=1;exitX=0.5;exitY=1;exitDx=0;exitDy=0;entryX=0;entryY=0.5;entryDx=0;entryDy=0;" edge="1" parent="1" source="yzQE8LfdgDyKLCNUL7R--37" target="yzQE8LfdgDyKLCNUL7R--18">
          <mxGeometry relative="1" as="geometry">
            <Array as="points">
              <mxPoint x="235" y="711" />
              <mxPoint x="104" y="711" />
              <mxPoint x="104" y="378" />
              <mxPoint x="187" y="378" />
            </Array>
          </mxGeometry>
        </mxCell>
        <mxCell id="yzQE8LfdgDyKLCNUL7R--37" value="6.3" style="ellipse;whiteSpace=wrap;html=1;" vertex="1" parent="1">
          <mxGeometry x="204" y="639" width="62" height="52" as="geometry" />
        </mxCell>
        <mxCell id="yzQE8LfdgDyKLCNUL7R--46" style="edgeStyle=orthogonalEdgeStyle;rounded=0;orthogonalLoop=1;jettySize=auto;html=1;exitX=0;exitY=0.5;exitDx=0;exitDy=0;entryX=1;entryY=0.5;entryDx=0;entryDy=0;" edge="1" parent="1" source="yzQE8LfdgDyKLCNUL7R--43" target="yzQE8LfdgDyKLCNUL7R--4">
          <mxGeometry relative="1" as="geometry">
            <Array as="points">
              <mxPoint x="282" y="602" />
              <mxPoint x="282" y="807" />
              <mxPoint x="157" y="807" />
              <mxPoint x="157" y="1049" />
            </Array>
          </mxGeometry>
        </mxCell>
        <mxCell id="yzQE8LfdgDyKLCNUL7R--43" value="12" style="ellipse;whiteSpace=wrap;html=1;" vertex="1" parent="1">
          <mxGeometry x="363" y="576" width="62" height="52" as="geometry" />
        </mxCell>
        <mxCell id="yzQE8LfdgDyKLCNUL7R--50" style="edgeStyle=orthogonalEdgeStyle;rounded=0;orthogonalLoop=1;jettySize=auto;html=1;exitX=0.5;exitY=1;exitDx=0;exitDy=0;entryX=0.5;entryY=0;entryDx=0;entryDy=0;" edge="1" parent="1" source="yzQE8LfdgDyKLCNUL7R--47" target="yzQE8LfdgDyKLCNUL7R--49">
          <mxGeometry relative="1" as="geometry" />
        </mxCell>
        <mxCell id="yzQE8LfdgDyKLCNUL7R--47" value="13" style="ellipse;whiteSpace=wrap;html=1;" vertex="1" parent="1">
          <mxGeometry x="471" y="612" width="62" height="52" as="geometry" />
        </mxCell>
        <mxCell id="yzQE8LfdgDyKLCNUL7R--52" style="edgeStyle=orthogonalEdgeStyle;rounded=0;orthogonalLoop=1;jettySize=auto;html=1;exitX=0.5;exitY=1;exitDx=0;exitDy=0;" edge="1" parent="1" source="yzQE8LfdgDyKLCNUL7R--49" target="yzQE8LfdgDyKLCNUL7R--51">
          <mxGeometry relative="1" as="geometry">
            <Array as="points">
              <mxPoint x="502" y="745" />
              <mxPoint x="440" y="745" />
            </Array>
          </mxGeometry>
        </mxCell>
        <mxCell id="yzQE8LfdgDyKLCNUL7R--59" style="edgeStyle=orthogonalEdgeStyle;rounded=0;orthogonalLoop=1;jettySize=auto;html=1;exitX=1;exitY=0.5;exitDx=0;exitDy=0;entryX=1;entryY=0.5;entryDx=0;entryDy=0;" edge="1" parent="1" source="yzQE8LfdgDyKLCNUL7R--49" target="yzQE8LfdgDyKLCNUL7R--58">
          <mxGeometry relative="1" as="geometry" />
        </mxCell>
        <mxCell id="yzQE8LfdgDyKLCNUL7R--49" value="14" style="ellipse;whiteSpace=wrap;html=1;" vertex="1" parent="1">
          <mxGeometry x="471" y="689" width="62" height="52" as="geometry" />
        </mxCell>
        <mxCell id="yzQE8LfdgDyKLCNUL7R--54" style="edgeStyle=orthogonalEdgeStyle;rounded=0;orthogonalLoop=1;jettySize=auto;html=1;exitX=0.5;exitY=1;exitDx=0;exitDy=0;entryX=0.5;entryY=0;entryDx=0;entryDy=0;" edge="1" parent="1" source="yzQE8LfdgDyKLCNUL7R--51" target="yzQE8LfdgDyKLCNUL7R--53">
          <mxGeometry relative="1" as="geometry" />
        </mxCell>
        <mxCell id="yzQE8LfdgDyKLCNUL7R--51" value="15.1" style="ellipse;whiteSpace=wrap;html=1;" vertex="1" parent="1">
          <mxGeometry x="409" y="759" width="62" height="52" as="geometry" />
        </mxCell>
        <mxCell id="yzQE8LfdgDyKLCNUL7R--56" style="edgeStyle=orthogonalEdgeStyle;rounded=0;orthogonalLoop=1;jettySize=auto;html=1;exitX=0;exitY=0.5;exitDx=0;exitDy=0;entryX=0.5;entryY=0;entryDx=0;entryDy=0;" edge="1" parent="1" source="yzQE8LfdgDyKLCNUL7R--53" target="yzQE8LfdgDyKLCNUL7R--55">
          <mxGeometry relative="1" as="geometry" />
        </mxCell>
        <mxCell id="yzQE8LfdgDyKLCNUL7R--61" style="edgeStyle=orthogonalEdgeStyle;rounded=0;orthogonalLoop=1;jettySize=auto;html=1;exitX=1;exitY=0.5;exitDx=0;exitDy=0;entryX=0.5;entryY=0;entryDx=0;entryDy=0;" edge="1" parent="1" source="yzQE8LfdgDyKLCNUL7R--53" target="yzQE8LfdgDyKLCNUL7R--58">
          <mxGeometry relative="1" as="geometry" />
        </mxCell>
        <mxCell id="yzQE8LfdgDyKLCNUL7R--53" value="15.2" style="ellipse;whiteSpace=wrap;html=1;" vertex="1" parent="1">
          <mxGeometry x="407" y="827" width="62" height="52" as="geometry" />
        </mxCell>
        <mxCell id="yzQE8LfdgDyKLCNUL7R--63" style="edgeStyle=orthogonalEdgeStyle;rounded=0;orthogonalLoop=1;jettySize=auto;html=1;exitX=0;exitY=0.5;exitDx=0;exitDy=0;entryX=0.5;entryY=0;entryDx=0;entryDy=0;" edge="1" parent="1" source="yzQE8LfdgDyKLCNUL7R--55" target="yzQE8LfdgDyKLCNUL7R--62">
          <mxGeometry relative="1" as="geometry" />
        </mxCell>
        <mxCell id="yzQE8LfdgDyKLCNUL7R--66" style="edgeStyle=orthogonalEdgeStyle;rounded=0;orthogonalLoop=1;jettySize=auto;html=1;exitX=1;exitY=0.5;exitDx=0;exitDy=0;entryX=0.5;entryY=0;entryDx=0;entryDy=0;" edge="1" parent="1" source="yzQE8LfdgDyKLCNUL7R--55" target="yzQE8LfdgDyKLCNUL7R--65">
          <mxGeometry relative="1" as="geometry" />
        </mxCell>
        <mxCell id="yzQE8LfdgDyKLCNUL7R--55" value="16" style="ellipse;whiteSpace=wrap;html=1;" vertex="1" parent="1">
          <mxGeometry x="334" y="882" width="62" height="52" as="geometry" />
        </mxCell>
        <mxCell id="yzQE8LfdgDyKLCNUL7R--60" style="edgeStyle=orthogonalEdgeStyle;rounded=0;orthogonalLoop=1;jettySize=auto;html=1;exitX=0.5;exitY=1;exitDx=0;exitDy=0;entryX=0.5;entryY=1;entryDx=0;entryDy=0;" edge="1" parent="1" source="yzQE8LfdgDyKLCNUL7R--58" target="yzQE8LfdgDyKLCNUL7R--4">
          <mxGeometry relative="1" as="geometry" />
        </mxCell>
        <mxCell id="yzQE8LfdgDyKLCNUL7R--58" value="18" style="ellipse;whiteSpace=wrap;html=1;" vertex="1" parent="1">
          <mxGeometry x="588" y="976" width="62" height="52" as="geometry" />
        </mxCell>
        <mxCell id="yzQE8LfdgDyKLCNUL7R--64" style="edgeStyle=orthogonalEdgeStyle;rounded=0;orthogonalLoop=1;jettySize=auto;html=1;exitX=0.5;exitY=1;exitDx=0;exitDy=0;entryX=0.871;entryY=1;entryDx=0;entryDy=0;entryPerimeter=0;" edge="1" parent="1" source="yzQE8LfdgDyKLCNUL7R--62" target="yzQE8LfdgDyKLCNUL7R--4">
          <mxGeometry relative="1" as="geometry">
            <Array as="points">
              <mxPoint x="307" y="1075" />
            </Array>
          </mxGeometry>
        </mxCell>
        <mxCell id="yzQE8LfdgDyKLCNUL7R--62" value="17" style="ellipse;whiteSpace=wrap;html=1;" vertex="1" parent="1">
          <mxGeometry x="276" y="934" width="62" height="52" as="geometry" />
        </mxCell>
        <mxCell id="yzQE8LfdgDyKLCNUL7R--67" style="edgeStyle=orthogonalEdgeStyle;rounded=0;orthogonalLoop=1;jettySize=auto;html=1;exitX=1;exitY=0.5;exitDx=0;exitDy=0;entryX=1;entryY=1;entryDx=0;entryDy=0;" edge="1" parent="1" source="yzQE8LfdgDyKLCNUL7R--65" target="yzQE8LfdgDyKLCNUL7R--53">
          <mxGeometry relative="1" as="geometry" />
        </mxCell>
        <mxCell id="yzQE8LfdgDyKLCNUL7R--65" value="15.3" style="ellipse;whiteSpace=wrap;html=1;" vertex="1" parent="1">
          <mxGeometry x="404" y="938" width="62" height="52" as="geometry" />
        </mxCell>
      </root>
    </mxGraphModel>
  </diagram>
</mxfile>
